# xmcd
#
# Track frame offsets:
#	150
#	17264
#	38377
#	51560
#	89627
#	111490
#	135456
#	149233
#	172842
#	194548
#	209825
#	228163
#	242912
#
# Disc length: 3529 seconds
#
# Revision: 1
# Processed by: cddbd v1.5.1PL0 Copyright (c) Steve Scherf et al.
# Submitted via: audiograbber 1.83.01
#
DISCID=be0dc70d
DTITLE=Various Artist - Blues Alive No.VI
DYEAR=2000
DGENRE=Blues
TTITLE0=Ann Rabson - Music Making Mama
TTITLE1=Graves Tonya and Tony Blues Band - Come Together
TTITLE2=Bluesberry - Byl to Bo Diddley
TTITLE3=Stan Tha Man Bohemian Blues Band - Unchain My Heart
TTITLE4=Dura and Blues Club - Zuza Blues
TTITLE5=Pat Fulgoni and Band - Hard Times
TTITLE6=Kaderus Blues - Nez dostanu mat
TTITLE7=Gumbo and Ondrej Konrad - Lover (Where Can You Be)
TTITLE8=Bartri Tesarikove - Shake Flat Blues
TTITLE9=Tucet - Penezenka
TTITLE10=Lukas Martinek and Tony Blues Band - Mary Had A Little Lamb
TTITLE11=Bob Log - Duck Back Down
TTITLE12=Eb Davis and Blues Generation - Woke Up This Morning (My Baby's Gone)
EXTD=Recorded live at Dum Kultury Sumperk, november 2000
EXTT0=
EXTT1=
EXTT2=
EXTT3=
EXTT4=
EXTT5=
EXTT6=
EXTT7=
EXTT8=
EXTT9=
EXTT10=
EXTT11=
EXTT12=
PLAYORDER=
